<?xml version="1.0" encoding="utf-8"?>
<!-- Generator: Adobe Illustrator 16.0.0, SVG Export Plug-In . SVG Version: 6.00 Build 0)  -->
<!DOCTYPE svg PUBLIC "-//W3C//DTD SVG 1.1//EN" "http://www.w3.org/Graphics/SVG/1.1/DTD/svg11.dtd">
<svg version="1.1" xmlns="http://www.w3.org/2000/svg" xmlns:xlink="http://www.w3.org/1999/xlink" x="0px" y="0px"
	 width="1999.996px" height="3000px" viewBox="0 0 1999.996 3000" enable-background="new 0 0 1999.996 3000" xml:space="preserve">
<g id="Layer_1">
	<rect x="0" y="-5.302" opacity="0.79" width="1999.995" height="3005.451"/>
	<g opacity="0.8">
		<path fill="#E84F28" d="M591.848,1312.011c-52.021,30.116-52.239,79.771-0.487,110.345l310.36,183.349
			c51.752,30.574,136.86,31.303,189.129,1.619l316.847-179.938c52.268-29.684,52.403-78.493,0.3-108.465l-320.628-184.441
			c-52.104-29.972-137.295-29.855-189.315,0.261L591.848,1312.011z"/>
	</g>
	<path fill="#E84F28" d="M421.088,2157.812v203.166h-40.961l-77.656-108.253v108.253h-48.753v-203.166h40.963l77.654,108.254
		v-108.254H421.088z"/>
	<path fill="#E84F28" d="M434.173,2259.405c0-60.952,41.469-105.649,97.762-105.649c56.294,0,97.757,44.697,97.757,105.649
		c0,60.931-41.463,105.64-97.757,105.64C475.642,2365.045,434.173,2320.336,434.173,2259.405z M579.43,2259.405
		c0-35.135-20.855-58.061-47.494-58.061c-26.64,0-47.499,22.926-47.499,58.061c0,35.113,20.859,58.038,47.499,58.038
		C558.575,2317.443,579.43,2294.519,579.43,2259.405z"/>
	<path fill="#E84F28" d="M677.16,2203.385h-54.037v-45.573h157.573v45.573h-53.78v157.593H677.16V2203.385z"/>
	<path fill="#E84F28" d="M895.087,2202.221v44.697h77.66v44.409h-77.66v69.65h-49.757v-203.166h137.973v44.409H895.087z"/>
	<path fill="#E84F28" d="M981.265,2259.405c0-60.952,41.458-105.649,97.747-105.649c56.299,0,97.762,44.697,97.762,105.649
		c0,60.931-41.463,105.64-97.762,105.64C1022.722,2365.045,981.265,2320.336,981.265,2259.405z M1126.515,2259.405
		c0-35.135-20.864-58.061-47.504-58.061s-47.494,22.926-47.494,58.061c0,35.113,20.854,58.038,47.494,58.038
		S1126.515,2294.519,1126.515,2259.405z"/>
	<path fill="#E84F28" d="M1187.372,2270.42v-112.608h49.757v110.868c0,34.836,12.572,48.764,33.426,48.764
		c20.609,0,33.172-13.928,33.172-48.764v-110.868h49.01v112.608c0,60.664-30.664,94.625-82.683,94.625
		S1187.372,2331.084,1187.372,2270.42z"/>
	<path fill="#E84F28" d="M1541.718,2157.812v203.166h-40.973l-77.656-108.253v108.253h-48.752v-203.166h40.962l77.655,108.254
		v-108.254H1541.718z"/>
	<path fill="#E84F28" d="M1564.825,2157.812h83.183c58.306,0,98.265,39.179,98.265,101.594c0,62.393-39.959,101.572-98.265,101.572
		h-83.183V2157.812z M1646.001,2315.127c29.905,0,50.013-20.608,50.013-55.722c0-35.135-20.107-55.733-50.013-55.733h-31.41v111.455
		H1646.001z"/>
	<g>
		<path fill="#E84F28" d="M761.939,1988.429c0,46.914-25.909,76.125-67.148,76.125H668.45v53.997H625.7V1912.01h69.091
			C736.03,1912.01,761.939,1941.22,761.939,1988.429z M718.757,1988.429c0-19.179-8.852-30.391-26.557-30.391h-23.75v60.486h23.75
			C709.905,2018.524,718.757,2007.313,718.757,1988.429z"/>
		<path fill="#E84F28" d="M912.039,1912.01v206.541h-42.75V2038h-58.296v80.551h-42.75V1912.01h42.75v77.6h58.296v-77.6H912.039z"/>
		<path fill="#E84F28" d="M920.436,2015.279c0-61.962,35.625-107.401,83.989-107.401c48.363,0,83.99,45.439,83.99,107.401
			s-35.627,107.402-83.99,107.402C956.062,2122.682,920.436,2077.241,920.436,2015.279z M1045.232,2015.279
			c0-35.703-17.92-59.013-40.807-59.013c-22.886,0-40.807,23.31-40.807,59.013c0,35.702,17.921,59.012,40.807,59.012
			C1027.312,2074.291,1045.232,2050.981,1045.232,2015.279z"/>
		<path fill="#E84F28" d="M1126.152,1958.334h-46.42v-46.324h135.375v46.324h-46.205v160.217h-42.75V1958.334z"/>
		<path fill="#E84F28" d="M1206.316,2015.279c0-61.962,35.627-107.401,83.99-107.401c48.365,0,83.99,45.439,83.99,107.401
			s-35.625,107.402-83.99,107.402C1241.943,2122.682,1206.316,2077.241,1206.316,2015.279z M1331.113,2015.279
			c0-35.703-17.92-59.013-40.807-59.013s-40.807,23.31-40.807,59.013c0,35.702,17.92,59.012,40.807,59.012
			S1331.113,2050.981,1331.113,2015.279z"/>
	</g>
</g>
<g id="Layer_2">
	<g opacity="0.8">
		<path fill="#E84F28" d="M591.848,1074.264c-52.021,30.116-52.239,79.771-0.487,110.345l310.36,183.349
			c51.752,30.574,136.86,31.302,189.129,1.619l316.847-179.937c52.268-29.684,52.403-78.493,0.3-108.465l-320.628-184.441
			c-52.104-29.972-137.295-29.855-189.315,0.261L591.848,1074.264z"/>
	</g>
</g>
<g id="Layer_3">
	<g opacity="0.8">
		<path fill="#E84F28" d="M591.848,814.254c-52.021,30.116-52.239,79.771-0.487,110.345l310.36,183.349
			c51.752,30.574,136.86,31.302,189.129,1.619l316.847-179.937c52.268-29.684,52.403-78.493,0.3-108.465l-320.628-184.441
			c-52.103-29.973-137.295-29.855-189.315,0.261L591.848,814.254z"/>
	</g>
</g>
</svg>
