<?xml version="1.0" encoding="utf-8"?>
<!-- Generator: Adobe Illustrator 16.0.0, SVG Export Plug-In . SVG Version: 6.00 Build 0)  -->
<!DOCTYPE svg PUBLIC "-//W3C//DTD SVG 1.1//EN" "http://www.w3.org/Graphics/SVG/1.1/DTD/svg11.dtd">
<svg version="1.1" xmlns="http://www.w3.org/2000/svg" xmlns:xlink="http://www.w3.org/1999/xlink" x="0px" y="0px"
	 width="1999.996px" height="3000px" viewBox="0 0 1999.996 3000" enable-background="new 0 0 1999.996 3000" xml:space="preserve">
<g id="Layer_1">
	<rect x="0" y="-5.302" opacity="0.79" width="1999.995" height="3005.451"/>
	<g opacity="0.8">
		<path fill="#E84F28" d="M591.848,1312.011c-52.021,30.116-52.239,79.771-0.487,110.345l310.36,183.349
			c51.752,30.574,136.86,31.303,189.129,1.619l316.847-179.938c52.268-29.684,52.403-78.493,0.3-108.465l-320.628-184.441
			c-52.104-29.972-137.295-29.855-189.315,0.261L591.848,1312.011z"/>
	</g>
	<g>
		<path fill="#E84F28" d="M668.094,1955.317c0,46.138-30.162,74.869-78.158,74.869h-30.662v53.118h-49.757v-203.167h80.419
			C637.932,1880.138,668.094,1908.868,668.094,1955.317z M617.83,1955.317c0-18.881-10.304-29.895-30.914-29.895h-27.642v59.5
			h27.642C607.525,1984.923,617.83,1973.887,617.83,1955.317z"/>
		<path fill="#E84F28" d="M670.591,1981.721c0-60.941,41.469-105.639,97.762-105.639c56.294,0,97.757,44.697,97.757,105.639
			c0,60.942-41.463,105.65-97.757,105.65C712.06,2087.371,670.591,2042.663,670.591,1981.721z M815.848,1981.721
			c0-35.123-20.855-58.049-47.494-58.049c-26.64,0-47.499,22.926-47.499,58.049c0,35.125,20.859,58.05,47.499,58.05
			C794.993,2039.771,815.848,2016.846,815.848,1981.721z"/>
		<path fill="#E84F28" d="M866.409,2065.021l16.335-42.37c15.582,11.89,37.696,20.012,58.054,20.012
			c20.604,0,28.651-6.671,28.651-16.544c0-32.199-100.026-8.697-100.026-84.154c0-36.287,25.637-65.883,77.907-65.883
			c22.866,0,46.49,6.094,63.823,17.696l-15.326,42.658c-16.836-10.438-33.417-15.657-48.748-15.657
			c-20.861,0-28.401,8.122-28.401,18.272c0,31.068,99.764,7.845,99.764,82.724c0,35.412-25.625,65.596-77.895,65.596
			C911.646,2087.371,882.996,2078.373,866.409,2065.021z"/>
		<path fill="#E84F28" d="M1066.076,1925.711h-54.037v-45.573h157.573v45.573h-53.78v157.594h-49.756V1925.711z"/>
		<path fill="#E84F28" d="M1314.197,2038.895v44.41h-141.244v-203.167h137.977v44.409h-88.722v34.239h78.167v42.957h-78.167v37.151
			H1314.197z"/>
		<path fill="#E84F28" d="M1407.541,2029.312h-27.142v53.993h-49.767v-203.167h80.42c48.006,0,78.156,28.73,78.156,75.18
			c0,29.883-12.562,51.943-34.431,64.143l37.952,63.845h-53.279L1407.541,2029.312z M1408.042,1925.423h-27.644v59.5h27.644
			c20.608,0,30.907-11.036,30.907-29.605C1438.95,1936.437,1428.651,1925.423,1408.042,1925.423z"/>
		<path fill="#E84F28" d="M421.088,2157.812v203.166h-40.961l-77.656-108.253v108.253h-48.753v-203.166h40.963l77.654,108.254
			v-108.254H421.088z"/>
		<path fill="#E84F28" d="M434.173,2259.405c0-60.952,41.469-105.649,97.762-105.649c56.294,0,97.757,44.697,97.757,105.649
			c0,60.931-41.463,105.64-97.757,105.64C475.642,2365.045,434.173,2320.336,434.173,2259.405z M579.43,2259.405
			c0-35.135-20.855-58.061-47.494-58.061c-26.64,0-47.499,22.926-47.499,58.061c0,35.113,20.859,58.038,47.499,58.038
			C558.575,2317.443,579.43,2294.519,579.43,2259.405z"/>
		<path fill="#E84F28" d="M677.16,2203.385h-54.037v-45.573h157.573v45.573h-53.78v157.593H677.16V2203.385z"/>
		<path fill="#E84F28" d="M895.087,2202.221v44.697h77.66v44.409h-77.66v69.65h-49.757v-203.166h137.973v44.409H895.087z"/>
		<path fill="#E84F28" d="M981.265,2259.405c0-60.952,41.458-105.649,97.747-105.649c56.299,0,97.762,44.697,97.762,105.649
			c0,60.931-41.463,105.64-97.762,105.64C1022.722,2365.045,981.265,2320.336,981.265,2259.405z M1126.515,2259.405
			c0-35.135-20.864-58.061-47.504-58.061s-47.494,22.926-47.494,58.061c0,35.113,20.854,58.038,47.494,58.038
			S1126.515,2294.519,1126.515,2259.405z"/>
		<path fill="#E84F28" d="M1187.372,2270.42v-112.608h49.757v110.868c0,34.836,12.572,48.764,33.426,48.764
			c20.609,0,33.172-13.928,33.172-48.764v-110.868h49.01v112.608c0,60.664-30.664,94.625-82.683,94.625
			S1187.372,2331.084,1187.372,2270.42z"/>
		<path fill="#E84F28" d="M1541.718,2157.812v203.166h-40.973l-77.656-108.253v108.253h-48.752v-203.166h40.962l77.655,108.254
			v-108.254H1541.718z"/>
		<path fill="#E84F28" d="M1564.825,2157.812h83.183c58.306,0,98.265,39.179,98.265,101.594c0,62.393-39.959,101.572-98.265,101.572
			h-83.183V2157.812z M1646.001,2315.127c29.905,0,50.013-20.608,50.013-55.722c0-35.135-20.107-55.733-50.013-55.733h-31.41
			v111.455H1646.001z"/>
	</g>
</g>
<g id="Layer_2">
	<g opacity="0.8">
		<path fill="#E84F28" d="M591.848,1074.264c-52.021,30.116-52.239,79.771-0.487,110.345l310.36,183.349
			c51.752,30.574,136.86,31.302,189.129,1.619l316.847-179.937c52.268-29.684,52.403-78.493,0.3-108.465l-320.628-184.441
			c-52.104-29.972-137.295-29.855-189.315,0.261L591.848,1074.264z"/>
	</g>
</g>
<g id="Layer_3">
	<g opacity="0.8">
		<path fill="#E84F28" d="M591.848,814.254c-52.021,30.116-52.239,79.771-0.487,110.345l310.36,183.349
			c51.752,30.574,136.86,31.302,189.129,1.619l316.847-179.937c52.268-29.684,52.403-78.493,0.3-108.465l-320.628-184.441
			c-52.103-29.973-137.295-29.855-189.315,0.261L591.848,814.254z"/>
	</g>
</g>
</svg>
