<?xml version="1.0" encoding="utf-8"?>
<!-- Generator: Adobe Illustrator 16.0.0, SVG Export Plug-In . SVG Version: 6.00 Build 0)  -->
<!DOCTYPE svg PUBLIC "-//W3C//DTD SVG 1.1//EN" "http://www.w3.org/Graphics/SVG/1.1/DTD/svg11.dtd">
<svg version="1.1" id="Layer_1" xmlns="http://www.w3.org/2000/svg" xmlns:xlink="http://www.w3.org/1999/xlink" x="0px" y="0px"
	 width="437.334px" height="222.33px" viewBox="0 0 437.334 222.33" enable-background="new 0 0 437.334 222.33"
	 xml:space="preserve">
<g>
	<path fill="none" stroke="#E84F28" stroke-width="12.0326" stroke-miterlimit="10" d="M9.004,220.002V42.794
		c0-21.156,17.31-38.466,38.466-38.466h343.001c21.156,0,38.466,17.31,38.466,38.466v107.121c0,21.156-17.31,38.466-38.466,38.466
		H48.597"/>
</g>
<path fill="#E84F28" d="M39.467,44.329H23.565V28.907h46.372v15.422H54.11v53.338H39.467V44.329z"/>
<path fill="#E84F28" d="M121.406,28.907v68.76h-14.644V70.85H86.794v26.817H72.149v-68.76h14.645v25.834h19.969V28.907H121.406z"/>
<path fill="#E84F28" d="M171.065,82.638v15.029H129.5v-68.76h40.604v15.028h-26.108v11.591h23.001v14.538h-23.001v12.573H171.065z"
	/>
<path fill="#E84F28" d="M87.188,176.076l-0.148-36.443l-13.312,29.666h-6.509l-13.238-28.683v35.46H40.446v-68.759h12.056
	L70.696,147l17.75-39.684h12.055l0.148,68.759H87.188z"/>
<path fill="#E84F28" d="M105.577,141.697c0-20.628,12.203-35.756,28.77-35.756c16.567,0,28.771,15.127,28.771,35.756
	c0,20.628-12.204,35.754-28.771,35.754C117.78,177.451,105.577,162.325,105.577,141.697z M148.325,141.697
	c0-11.886-6.138-19.646-13.979-19.646c-7.839,0-13.978,7.76-13.978,19.646c0,11.886,6.138,19.646,13.978,19.646
	C142.187,161.342,148.325,153.583,148.325,141.697z"/>
<path fill="#E84F28" d="M217.937,107.317l-22.187,68.759h-14.422l-22.113-68.759h15.827l14.052,44.791l14.348-44.791H217.937z"/>
<path fill="#E84F28" d="M219.359,107.317h14.644v68.759h-14.644V107.317z"/>
<path fill="#E84F28" d="M283.289,161.047v15.029h-41.565v-68.759h40.604v15.028H256.22v11.592h23.001v14.538H256.22v12.573H283.289z
	"/>
<path fill="#E84F28" d="M297.335,107.317h24.48c17.158,0,28.918,13.261,28.918,34.379c0,21.119-11.76,34.38-28.918,34.38h-24.48
	V107.317z M321.224,160.557c8.801,0,14.718-6.974,14.718-18.86c0-11.885-5.917-18.859-14.718-18.859h-9.244v37.72H321.224z"/>
<path fill="#E84F28" d="M403.912,157.217c0,11.886-7.396,18.859-21.301,18.859h-27.957v-68.759h26.478
	c13.608,0,20.265,7.367,20.265,17.976c0,6.581-2.515,11.885-6.951,14.931C400.287,142.974,403.912,148.867,403.912,157.217z
	 M369.15,121.363v13.261h10.059c4.881,0,7.396-2.259,7.396-6.68c0-4.322-2.516-6.581-7.396-6.581H369.15z M389.119,155.056
	c0-4.715-2.662-6.974-7.691-6.974H369.15v13.948h12.277C386.457,162.03,389.119,159.771,389.119,155.056z"/>
</svg>
