<?xml version="1.0" encoding="utf-8"?>
<!-- Generator: Adobe Illustrator 16.0.0, SVG Export Plug-In . SVG Version: 6.00 Build 0)  -->
<!DOCTYPE svg PUBLIC "-//W3C//DTD SVG 1.1//EN" "http://www.w3.org/Graphics/SVG/1.1/DTD/svg11.dtd">
<svg version="1.1" id="Layer_1" xmlns="http://www.w3.org/2000/svg" xmlns:xlink="http://www.w3.org/1999/xlink" x="0px" y="0px"
	 width="661.167px" height="384.067px" viewBox="-223.833 -22.402 661.167 384.067"
	 enable-background="new -223.833 -22.402 661.167 384.067" xml:space="preserve">
<g>
	<path fill="#E84F28" d="M-175.184,63.74h-48.649v-86.142h141.876V63.74h-48.423v297.925h-44.804V63.74z"/>
	<path fill="#E84F28" d="M65.287,361.665L64.835,158.11L24.104,323.808H4.192l-40.504-160.21v198.067h-41.409V-22.402h36.883
		l55.664,221.661L69.133-22.402h36.883l0.453,384.067H65.287z"/>
	<path fill="#E84F28" d="M119.035-22.402h74.898c52.497,0,88.474,74.07,88.474,192.034c0,117.961-35.977,192.033-88.474,192.033
		h-74.898V-22.402z M192.123,274.975c26.927,0,45.03-38.954,45.03-105.343c0-66.387-18.103-105.345-45.03-105.345h-28.284v210.688
		H192.123z"/>
	<path fill="#E84F28" d="M436.486,256.319c0,66.391-22.628,105.346-65.168,105.346h-85.532V-22.402h81.006
		c41.635,0,62,41.151,62,100.406c0,36.762-7.692,66.388-21.27,83.398C425.398,176.765,436.486,209.685,436.486,256.319z
		 M330.136,56.059v74.069h30.773c14.936,0,22.627-12.619,22.627-37.311c0-24.139-7.691-36.758-22.627-36.758H330.136z
		 M391.231,244.251c0-26.337-8.146-38.955-23.534-38.955h-37.562v77.911h37.562C383.085,283.207,391.231,270.588,391.231,244.251z"
		/>
</g>
</svg>
